<svg width="32" height="32" viewBox="0 0 32 32" fill="none" xmlns="http://www.w3.org/2000/svg">
<g id="HourglassMedium-r">
<g id="Vector">
<path fill-rule="evenodd" clip-rule="evenodd" d="M16.6034 16.7975C16.2477 17.0666 15.7568 17.0676 15.4 16.8L7.8 11.1C7.8 11.1 7.42199 10.8129 7.21245 10.3938C7.21245 10.3938 7.00291 9.9747 7.00002 9.50616L7 5C7 5 7 4.17157 7.58579 3.58579C7.58579 3.58579 8.17157 3 9 3H23C23 3 23.8284 3 24.4142 3.58579C24.4142 3.58579 25 4.17157 25 5V9.45C25 9.45 24.9971 9.9247 24.7876 10.3438C24.7876 10.3438 24.578 10.7629 24.2049 11.0463L16.6034 16.7975ZM22.9952 9.45359C22.9952 9.45359 22.9974 9.45186 22.9987 9.44935L22.9996 9.4482L23 9.44998V5H9L8.99998 9.49384C8.99998 9.49384 9 9.49675 9.0013 9.49935L9.00166 9.50079C9.00166 9.50079 9.00138 9.50103 9.00001 9.50001L15.9974 14.748L22.9952 9.45359Z" fill="#70C217"/>
<path fill-rule="evenodd" clip-rule="evenodd" d="M24.2049 20.9537C24.2049 20.9537 24.578 21.2371 24.7876 21.6562C24.7876 21.6562 24.9971 22.0753 25 22.55V27C25 27 25 27.8284 24.4142 28.4142C24.4142 28.4142 23.8284 29 23 29H9C9 29 8.17157 29 7.58579 28.4142C7.58579 28.4142 7 27.8284 7 27L7.00002 22.4938C7.00002 22.4938 7.00291 22.0253 7.21245 21.6062C7.21245 21.6062 7.42198 21.1871 7.8 20.9L15.4 15.2C15.7568 14.9324 16.2477 14.9334 16.6034 15.2025L24.2049 20.9537ZM22.9987 22.5507C22.9987 22.5507 22.9974 22.5481 22.9952 22.5464L15.9974 17.252L9.00001 22.5L9.00166 22.4992L9.0013 22.5007C9.0013 22.5007 9 22.5033 8.99998 22.5062L9 27H23V22.55L22.9996 22.5518C22.9995 22.5516 22.9989 22.5511 22.9987 22.5507Z" fill="#70C217"/>
<path d="M9.33752 12H22.6125C23.1648 12 23.6125 11.5523 23.6125 11C23.6125 10.4477 23.1648 10 22.6125 10H9.33752C8.78524 10 8.33752 10.4477 8.33752 11C8.33752 11.5523 8.78524 12 9.33752 12Z" fill="#70C217"/>
<path d="M17 21V16C17 15.4477 16.5523 15 16 15C15.4477 15 15 15.4477 15 16V21C15 21.5523 15.4477 22 16 22C16.5523 22 17 21.5523 17 21Z" fill="#70C217"/>
</g>
</g>
</svg>
