<svg xmlns="http://www.w3.org/2000/svg" width="13" height="16" viewBox="0 0 13 16" fill="none">
  <g clip-path="url(#clip0_37_4353)">
    <path d="M5.5279 2.46045L6.1721 1.81006C6.44487 1.53467 6.88594 1.53467 7.1558 1.81006L12.7969 7.50244C13.0696 7.77783 13.0696 8.22315 12.7969 8.49561L7.1558 14.1909C6.88304 14.4663 6.44196 14.4663 6.1721 14.1909L5.5279 13.5405C5.25223 13.2622 5.25804 12.8081 5.53951 12.5356L9.03616 9.17236H0.696429C0.310491 9.17236 0 8.85889 0 8.46924V7.53174C0 7.14209 0.310491 6.82861 0.696429 6.82861H9.03616L5.53951 3.46533C5.25513 3.19287 5.24933 2.73877 5.5279 2.46045Z" fill="white"/>
  </g>
  <defs>
    <clipPath id="clip0_37_4353">
      <rect width="13" height="15" fill="white" transform="translate(0 0.5)"/>
    </clipPath>
  </defs>
</svg>