<?xml version="1.0" encoding="utf-8"?>
<!-- Generator: Adobe Illustrator 24.0.1, SVG Export Plug-In . SVG Version: 6.00 Build 0)  -->
<svg version="1.1" id="Layer_1" xmlns="http://www.w3.org/2000/svg" xmlns:xlink="http://www.w3.org/1999/xlink" x="0px" y="0px"
	 viewBox="0 0 1920 1080" style="enable-background:new 0 0 1920 1080;" xml:space="preserve">
<style type="text/css">
	.st0{fill:#BD9797;}
	.st1{clip-path:url(#SVGID_2_);fill:#A88489;}
	.st2{fill:#E8F8FF;}
	.st3{fill:#4F7018;}
	.st4{fill:#E0F4FF;}
	.st5{fill:#754835;}
	.st6{clip-path:url(#SVGID_4_);fill:#683F30;}
	.st7{fill:#E8E8EB;}
	.st8{clip-path:url(#SVGID_6_);fill:#F0F0F0;}
	.st9{clip-path:url(#SVGID_6_);fill:#BBBBBB;}
	.st10{clip-path:url(#SVGID_6_);fill:#A88489;}
	.st11{clip-path:url(#SVGID_6_);fill:#D5D2DA;}
	.st12{fill:#828B4C;}
	.st13{clip-path:url(#SVGID_8_);fill:#747A45;}
	.st14{fill:#6F7841;}
	.st15{clip-path:url(#SVGID_10_);fill:#63693B;}
	.st16{fill:#B5D602;}
	.st17{clip-path:url(#SVGID_12_);fill:#B30000;}
	.st18{clip-path:url(#SVGID_12_);fill:#FFFFFF;}
	.st19{clip-path:url(#SVGID_12_);fill:#A1BB02;}
	.st20{clip-path:url(#SVGID_12_);fill:#9F0000;}
	.st21{clip-path:url(#SVGID_12_);fill:#E3DFE8;}
	.st22{clip-path:url(#SVGID_14_);fill:#676B3F;}
	.st23{fill:#552C2B;}
	.st24{clip-path:url(#SVGID_16_);fill:#63693B;}
	.st25{clip-path:url(#SVGID_18_);fill:#747A45;}
	.st26{clip-path:url(#SVGID_20_);fill:#683F30;}
	.st27{fill:#231F20;}
	.st28{clip-path:url(#SVGID_22_);fill:#F3F3F3;}
	.st29{clip-path:url(#SVGID_22_);fill:#A88489;}
	.st30{clip-path:url(#SVGID_22_);fill:#D8D5DD;}
	.st31{fill:#BBBBBB;}
	.st32{fill:#1D0201;}
	.st33{fill:#181819;}
	.st34{fill:#FCFCFC;}
	.st35{fill:#A4D6FF;}
	.st36{fill:#FFFFFF;}
	.st37{clip-path:url(#SVGID_24_);fill:#140A1A;}
	.st38{fill:#140A1A;}
	.st39{fill:#541D26;}
	.st40{fill:#77861D;}
	.st41{fill:#CDCDCD;}
	.st42{clip-path:url(#SVGID_26_);}
	.st43{clip-path:url(#SVGID_28_);fill:#B30000;}
	.st44{clip-path:url(#SVGID_28_);fill:#FFFFFF;}
	.st45{clip-path:url(#SVGID_30_);fill:#B6B3BA;}
	.st46{fill:#53583C;}
	.st47{clip-path:url(#SVGID_32_);fill:#683F30;}
	.st48{clip-path:url(#SVGID_34_);fill:#F8F8F8;}
	.st49{clip-path:url(#SVGID_34_);fill:#A88489;}
	.st50{clip-path:url(#SVGID_34_);fill:#DCD9E1;}
	.st51{fill:#AEAEAE;}
	.st52{clip-path:url(#SVGID_36_);fill:#A4A4A4;}
	.st53{fill:#CACACA;}
	.st54{fill:#F8F8F8;}
	.st55{clip-path:url(#SVGID_38_);fill:#DCD9E1;}
	.st56{clip-path:url(#SVGID_40_);fill:#DCD9E1;}
	.st57{fill:#FCFEFF;}
	.st58{fill:#EEEFEC;}
	.st59{fill:#F1EDEB;}
	.st60{fill:#F0ECEB;}
	.st61{fill:#E9E6E6;}
</style>
<g>
	<path class="st0" d="M971.8,574.3c-0.3,0-0.4,0-0.5,0l0.2-8c0.1,0,14,0.3,23.1-8.8l5.7,5.7C989.7,573.7,974.8,574.3,971.8,574.3"/>
	<g>
		<defs>
			<path id="SVGID_1_" d="M971.8,574.3c-0.3,0-0.4,0-0.5,0l0.2-8c0.1,0,14,0.3,23.1-8.8l5.7,5.7
				C989.7,573.7,974.8,574.3,971.8,574.3"/>
		</defs>
		<clipPath id="SVGID_2_">
			<use xlink:href="#SVGID_1_"  style="overflow:visible;"/>
		</clipPath>
		<path class="st1" d="M982.2,564.7c-0.6,0.2-1.2,0.4-1.8,0.5c0.9,2.4,1.9,5.3,2.3,7.7c3.2-0.8,6.9-2.1,10.4-4.2l0.5-2.5
			c-2.3,0.9-4.9,1.7-6.6,1.7c-0.4,0-0.7,0-1-0.1C984.4,567.2,983,565.8,982.2,564.7"/>
	</g>
	<path class="st2" d="M960,437.1c-0.4,0-0.8,0-1.2,0c-8.2,0.1-16.4,1.9-23.9,5.1c-7.5,3.2-14.4,8-20.2,13.8
		c-5.8,5.8-10.4,12.8-13.5,20.4c-3.1,7.6-4.8,15.8-4.8,24c0,8.2,1.5,16.4,4.6,24c0.2,0.5,0.4,1,0.6,1.5c6.8,5.2,14.6,9,23.1,11.2
		c-0.3-1.3-0.5-2.7-0.6-4.1c-1.9,0.3-4.6,0.8-6.8,0.8c-1.9,0-3.5-0.3-3.8-1.3c-0.9-2.8,6.8-4.6,6.8-4.6s-9.1-3.3-6.2-5.7
		c0.5-0.4,1.2-0.6,2-0.6c2.6,0,6.3,2,8,3.1c0.4-5.1,1.4-10.4,2.7-15.5c-3.7-2.7-8-6.9-6.2-11.1c1.4-3.2,6.4-4.3,11.5-4.6
		c0.1-0.4,0.4-3,1.5-6.4c-0.7-1-1.4-1.8-2.1-2.6l0.1,0.5l0,0c-10.8-1-23.9-8.1-23.9-12.7c0-0.4,0.1-0.7,0.3-1.1
		c0.4-0.8,1.4-1.4,2.7-1.8l0,0c1.6-0.5,3.7-0.7,6-0.7c6.4,0,14.7,1.5,19.8,3.2c1.5,0.5,2.7,1.3,3.7,2.3c4.7-6,12.2-11.1,23.8-11.5
		l0,0c0.5,0,1,0,1.4,0c1.9,0,4,0.1,6.1,0.4c3.9,0.5,7.5,1.2,10.8,2c-3.6-3.9-6.6-8.2-6.6-11.3c0-0.9,0.2-1.6,0.8-2.3
		c0.7-0.8,1.7-1.3,3-1.5l0,0c0.3,0,0.6-0.1,1-0.1c6.8,0,18.7,6.9,24.1,13.1c-0.6-3.7-1.6-7.3-2.8-10.7c-5.5-4.8-11.9-8.6-18.7-11.2
		C975.6,438.5,967.8,437.1,960,437.1"/>
	<path class="st3" d="M931.5,512.3c0,0-14-7-11-14c3-7,24-4,24-4L931.5,512.3"/>
	<path class="st4" d="M991.6,545.2c-3.6,5.1-7.9,9.3-13.2,12.1c0.3,0.3,0.5,0.7,0.7,1l0.1,0.3c0.2,0.4,0.3,0.9,0.3,1.3
		c0,0.6-0.1,1.1-0.4,1.6c1.1-0.3,2.1-0.7,3.2-1.1c5-1.9,9.7-4.3,14-7.4l0.2-0.8C996.5,552.3,992.5,550.3,991.6,545.2 M901.5,526
		c3,7,7.4,13.5,12.7,19c5.7,5.9,12.5,10.7,20.1,14c3.1,1.4,6.3,2.5,9.6,3.3c0.2-0.1,0.4-0.2,0.7-0.3c-0.2-0.5-0.3-1.2-0.3-1.8
		c0.1-0.7,0.4-1.4,0.9-1.9c-12.7-3.8-18.5-11.7-20.5-21.1C916.1,535,908.3,531.2,901.5,526 M1011.8,498c-1.5,0-2.9-1.3-3.2-3.1
		c-0.4-2,0.6-3.9,2.3-4.2c0.2,0,0.3,0,0.5,0c1.5,0,2.9,1.3,3.2,3.1c0.4,2-0.6,3.9-2.3,4.2C1012.1,498,1011.9,498,1011.8,498
		 M1001.6,452.6c1.2,3.4,2.2,7,2.8,10.7c1.5,1.7,2.4,3.3,2.6,4.7c0,0.2,0.1,0.4,0.1,0.6c0.1,0.1,0.1,0.2,0.2,0.3
		c3.1,5.3,2.8,11.4-0.7,14.3c1.4,3.9,1.8,8.2,1.3,13c0,0.5,0,1,0,1.5c-0.5,4.6-0.5,14.1-9.4,34.7c0.5-0.2,0.9-0.2,0.9-0.2l4.5,0.5
		l0,0l-0.1,0.3c1.2,0.3,2,0.9,2,1.9c0,0.2,0,0.3-0.1,0.5c-0.4,1.4-1.5,2.2-2.8,2.8l-0.9,4.8c0.6,0.7,1.1,1.4,1.3,2
		c0.5,0.3,1,0.6,1.7,0.7c1.4-1.4,2.7-2.8,4-4.3l1-7.7c0,0,1.5,0.8,2.9,2.4c1.8-2.6,3.4-5.4,4.7-8.3c3.5-7.4,5.5-15.5,6-23.7
		c0.1-2.3,0.6-3.4,1.1-3.4c0,0,0,0,0,0c0,0,0,0,0,0c-0.5,0-1-0.9-1.1-2.7c-0.3-8.2-2.3-16.3-5.7-23.8c-3.4-7.5-8.3-14.3-14.3-19.9
		C1003,453.8,1002.3,453.2,1001.6,452.6"/>
	<path class="st5" d="M939.3,601.9c0,0-8.9,0.4-15.3-12.5c0,0-1.5,17.9,16.9,18.7C959.3,608.8,939.3,601.9,939.3,601.9"/>
	<g>
		<defs>
			<path id="SVGID_3_" d="M939.3,601.9c0,0-8.9,0.4-15.3-12.5c0,0-1.5,17.9,16.9,18.7C959.3,608.8,939.3,601.9,939.3,601.9"/>
		</defs>
		<clipPath id="SVGID_4_">
			<use xlink:href="#SVGID_3_"  style="overflow:visible;"/>
		</clipPath>
		<path class="st6" d="M924,591.2c0.2,4.5,2.1,16.3,16.9,16.9c0.9,0,1.7,0.1,2.4,0.1c0.1,0,0.1,0,0.2,0c-3.7-1.2-5.3-2.7-5.9-3.4
			C926.5,601.9,924.2,592.1,924,591.2"/>
	</g>
	<path class="st7" d="M920,635.8c0,3.9,16.9,7,37.8,7c20.9,0,37.8-3.1,37.8-7c0-3.9-16.9-7-37.8-7C936.9,628.8,920,631.9,920,635.8"
		/>
	<path class="st0" d="M981.5,602.6c1.6,6.4-4.7,17.2-5.2,22.4c-0.5,5.1,7,8.4,6.1,10.3c-0.9,1.9-10,1.1-13.6,1
		c-3.6-0.1-2.9-3.5-2.7-9.6c0.3-6.1,0.1-11.8,0.1-11.8v0c-7,1-14.4,0.3-14.4,0.3s-1.1,5.4-0.9,11.5c0.3,6.1,1,9.5-2.7,9.6
		c-3.6,0.1-12.7,1-13.6-1c-0.9-1.9,6.3-4.8,6.8-10c1.2-11.7,3.2-26.7,4.8-33.1L981.5,602.6"/>
	<g>
		<defs>
			<path id="SVGID_5_" d="M981.5,602.6c1.6,6.4-4.7,17.2-5.2,22.4c-0.5,5.1,7,8.4,6.1,10.3c-0.9,1.9-10,1.1-13.6,1
				c-3.6-0.1-2.9-3.5-2.7-9.6c0.3-6.1,0.1-11.8,0.1-11.8v0c-7,1-14.4,0.3-14.4,0.3s-1.1,5.4-0.9,11.5c0.3,6.1,1,9.5-2.7,9.6
				c-3.6,0.1-12.7,1-13.6-1c-0.9-1.9,6.3-4.8,6.8-10c1.2-11.7,3.2-26.7,4.8-33.1L981.5,602.6"/>
		</defs>
		<clipPath id="SVGID_6_">
			<use xlink:href="#SVGID_5_"  style="overflow:visible;"/>
		</clipPath>
		<path class="st8" d="M939.3,624.6c0,0,4.2,3.2,13.8,0.6c9.6-2.6,10,1,10,1s10,2.4,17.1-1.9c7.1-4.3,11.1,21.7,11.1,21.7
			s-37.3-3-38.2-3c-1,0-19.8,0.4-19.8,0.4l-4.1-11.2L939.3,624.6"/>
		<path class="st9" d="M973.5,631.8c0.9,0.6,1.4,1.5,1.7,2.5c0.3,1,0.3,2,0.1,3c0,0.2-0.9,0-0.9-0.2c0.2-0.9,0.3-1.8,0.2-2.7
			c-0.2-0.9-0.6-1.8-1.3-2.4L973.5,631.8z"/>
		<path class="st9" d="M977.2,631.8c0.9,0.6,1.4,1.5,1.7,2.5c0.3,1,0.3,2,0.1,3c0,0.2-0.9,0-0.9-0.2c0.2-0.9,0.3-1.8,0.2-2.7
			c-0.2-0.9-0.6-1.8-1.3-2.4L977.2,631.8z"/>
		<path class="st9" d="M943.7,632.1c-0.7,0.6-1.1,1.5-1.3,2.3c-0.2,0.9-0.1,1.8,0.2,2.7c0,0.1-0.9,0.4-0.9,0.2c-0.2-1-0.2-2,0.1-3
			c0.3-1,0.9-1.9,1.7-2.5L943.7,632.1z"/>
		<path class="st9" d="M940,632.1c-0.7,0.6-1.1,1.5-1.3,2.3c-0.2,0.9-0.1,1.8,0.2,2.7c0,0.1-0.9,0.4-0.9,0.2c-0.2-1-0.2-2,0.1-3
			c0.3-1,0.9-1.9,1.7-2.5L940,632.1z"/>
		<path class="st10" d="M948.8,613.7c0,0,0.1,5.3,0,12.3c0.7-0.1,1.3-0.2,2.1-0.3c0-0.3,0-0.7,0-1c0-5.3,0.9-9.6,0.9-9.6l0,0
			L948.8,613.7"/>
		<path class="st11" d="M950.9,625.7L950.9,625.7c-0.7,0.1-1.4,0.2-2.1,0.3c0,0.9,0,1.8,0,2.7c-0.1,4.2-1.1,6.4-2,7.6
			c0.6,0,1.1,0,1.5-0.1c2.4-0.1,2.9-1.6,2.9-4.3c0-0.9-0.1-1.9-0.1-3.1c0-0.7-0.1-1.5-0.1-2.3C950.9,626.3,950.9,626,950.9,625.7"/>
		<path class="st10" d="M981.8,604.4c-3.9,2.3-10.8,5-21.8,5.4c-1.1,0-2.1,0.1-3,0.1c-6.2,0-10.5-0.7-13.4-1.7
			c-0.1,0.6-0.2,1.2-0.2,1.8c3.7,0.8,8.6,1.6,14.3,1.6c2.7,0,5.6-0.2,8.6-0.6c7.4-1,12.3-2.9,15.5-4.6c0-0.5,0.1-1,0.1-1.4
			C981.8,604.7,981.8,604.5,981.8,604.4"/>
		<path class="st10" d="M972.2,613.3l-6,1.5c0,0,0.1,1.9,0.1,4.7C968.2,618.4,971.7,616,972.2,613.3"/>
	</g>
	<path class="st12" d="M942.6,598l-2.9,2.2c0,0-3,0.1-2.4,4.2c0,0,3.2,6.1,22.6,5.4c19.4-0.7,25.9-8.6,25.9-8.6s0.1-2.5-1.9-3.9
		c-2-1.4-21.8-3.2-21.8-3.2l-11.8,3.7L942.6,598"/>
	<g>
		<defs>
			<path id="SVGID_7_" d="M942.6,598l-2.9,2.2c0,0-3,0.1-2.4,4.2c0,0,3.2,6.1,22.6,5.4c19.4-0.7,25.9-8.6,25.9-8.6s0.1-2.5-1.9-3.9
				c-2-1.4-21.8-3.2-21.8-3.2l-11.8,3.7L942.6,598"/>
		</defs>
		<clipPath id="SVGID_8_">
			<use xlink:href="#SVGID_7_"  style="overflow:visible;"/>
		</clipPath>
		<path class="st13" d="M984,597.3c0,0-3.2,2.2-8.5,4.2c0,0,1.4,2,1.7,5.1c6.3-2.4,8.7-5.4,8.7-5.4s0,0,0,0
			C985.9,600.8,985.9,598.6,984,597.3L984,597.3"/>
	</g>
	<path class="st14" d="M979.3,579c0,0,2.9,0.3,3.5-3.1c0.6-3.4-4-14.9-4.5-15.1c-0.5-0.1-7.2,2.3-7.2,2.3l-1.4,3.1l1.7,5.4
		L979.3,579"/>
	<g>
		<defs>
			<path id="SVGID_9_" d="M979.3,579c0,0,2.9,0.3,3.5-3.1c0.6-3.4-4-14.9-4.5-15.1c-0.5-0.1-7.2,2.3-7.2,2.3l-1.4,3.1l1.7,5.4
				L979.3,579"/>
		</defs>
		<clipPath id="SVGID_10_">
			<use xlink:href="#SVGID_9_"  style="overflow:visible;"/>
		</clipPath>
		<path class="st15" d="M979.7,563.5c-1.3,0.4-2.6,0.8-3.9,1.1c1.6,3.9,3.2,9.2,4.4,14.3c0.9-0.2,2.3-0.9,2.7-3
			c0-0.2,0.1-0.5,0.1-0.7c0-0.6-0.1-1.4-0.3-2.3c-0.5-2.3-1.4-5.3-2.3-7.7C980.1,564.6,979.9,564,979.7,563.5"/>
	</g>
	<path class="st16" d="M939.7,600.2c0,0,4.3,5,19,4.7c14.7-0.4,25.3-7.6,25.3-7.6s-4.2-25.4-9.4-35.1c-5.1-9.7-19.2,0.7-19.2,0.7
		l-8.8-0.5l-2.9,3.9l-3.5,13.9L939.7,600.2"/>
	<g>
		<defs>
			<path id="SVGID_11_" d="M939.7,600.2c0,0,4.3,5,19,4.7c14.7-0.4,25.3-7.6,25.3-7.6s-4.2-25.4-9.4-35.1
				c-5.1-9.7-19.2,0.7-19.2,0.7l-8.8-0.5l-2.9,3.9l-3.5,13.9L939.7,600.2"/>
		</defs>
		<clipPath id="SVGID_12_">
			<use xlink:href="#SVGID_11_"  style="overflow:visible;"/>
		</clipPath>
		<path class="st17" d="M965.1,569.6l8.7-2c0.6-0.1,1.3,0.3,1.4,0.9l2,8.7c0.1,0.6-0.3,1.3-0.9,1.4l-8.7,2c-0.6,0.1-1.3-0.3-1.4-0.9
			l-2-8.7C964.1,570.3,964.5,569.7,965.1,569.6"/>
		<path class="st18" d="M967,571l0.1,0.5l0.7-0.2l1.6,7.1l0.7-0.2l-1.6-7.1l0.9-0.2l1.6,7.1l0.7-0.2l-0.4-1.6l0.4-0.1
			c0.6-0.1,1.1-0.4,1.5-0.8c0.4-0.3,0.7-0.8,0.8-1.3c0.1-0.5,0.1-1.1,0-1.7c-0.2-0.9-0.7-1.6-1.3-2c-0.7-0.4-1.6-0.4-2.6-0.2
			l-0.9,0.2L967,571 M970.1,570.7l0.6-0.1c0.7-0.2,1.2,0,1.7,0.3c0.5,0.4,0.9,1,1,1.7c0.1,0.5,0.2,1,0.1,1.4
			c-0.1,0.4-0.2,0.8-0.5,1.1c-0.2,0.3-0.6,0.5-0.9,0.5l-0.7,0.2L970.1,570.7"/>
		<path class="st19" d="M975.8,564.6c-2.3,0.6-4.7,1-7.1,1.3l0.5,2.7l4.7-1.1c0.1,0,0.2,0,0.3,0c0.5,0,1,0.4,1.1,0.9l2,8.7
			c0.1,0.6-0.3,1.3-0.9,1.4l-5.1,1.2l4.2,21.7c0,0,0,0,0,0c5.3-2,8.5-4.2,8.5-4.2S980.4,575.5,975.8,564.6"/>
		<path class="st20" d="M971.2,570.6c-0.2,0-0.4,0-0.6,0.1l-0.6,0.1l1.2,5.1l0.7-0.2c0.4-0.1,0.7-0.3,0.9-0.5
			c0.3-0.3,0.4-0.6,0.5-1.1c0.1-0.4,0-0.9-0.1-1.4c-0.1-0.7-0.5-1.3-1-1.7C972,570.7,971.6,570.6,971.2,570.6 M974.1,567.5
			c-0.1,0-0.2,0-0.3,0l-4.7,1.1l0.3,1.8l0.6-0.1c0.4-0.1,0.8-0.1,1.1-0.1c0.6,0,1,0.1,1.5,0.3c0.7,0.4,1.1,1,1.3,2
			c0.1,0.6,0.1,1.2,0,1.7c-0.1,0.5-0.4,1-0.8,1.3c-0.4,0.4-0.9,0.6-1.5,0.8l-0.4,0.1l0.4,1.6L971,578l-0.2-0.8l0.5,2.5l5.1-1.2
			c0.6-0.1,1-0.8,0.9-1.4l-2-8.7C975.1,567.9,974.7,567.5,974.1,567.5"/>
		<path class="st21" d="M971.2,575.8l-1.2-5.1l0.6-0.1c0.2,0,0.4-0.1,0.6-0.1c0.4,0,0.8,0.1,1.1,0.4c0.5,0.4,0.9,1,1,1.7
			c0.1,0.5,0.2,1,0.1,1.4c-0.1,0.4-0.2,0.8-0.5,1.1c-0.2,0.3-0.6,0.5-0.9,0.5L971.2,575.8 M971.3,570.1c-0.3,0-0.7,0-1.1,0.1
			l-0.6,0.1l1.3,6.8l0.2,0.8l0.7-0.2l-0.4-1.6l0.4-0.1c0.6-0.1,1.1-0.4,1.5-0.8c0.4-0.3,0.7-0.8,0.8-1.3c0.1-0.5,0.1-1.1,0-1.7
			c-0.2-0.9-0.7-1.6-1.3-2C972.3,570.2,971.8,570.1,971.3,570.1"/>
	</g>
	<path class="st12" d="M944.2,560.3c-0.2,1.8,1,3.5,2.8,3.8c5.6,1,17.9,2.4,29.9-0.8c2-0.5,3.1-2.7,2.3-4.7l-0.1-0.3
		c-0.6-1.3-1.9-2.2-3.3-2.1l-28.2,1C945.8,557.3,944.4,558.6,944.2,560.3"/>
	<g>
		<defs>
			<path id="SVGID_13_" d="M944.2,560.3c-0.2,1.8,1,3.5,2.8,3.8c5.6,1,17.9,2.4,29.9-0.8c2-0.5,3.1-2.7,2.3-4.7l-0.1-0.3
				c-0.6-1.3-1.9-2.2-3.3-2.1l-28.2,1C945.8,557.3,944.4,558.6,944.2,560.3"/>
		</defs>
		<clipPath id="SVGID_14_">
			<use xlink:href="#SVGID_13_"  style="overflow:visible;"/>
		</clipPath>
		<path class="st22" d="M978.4,557.3c-3.2,1.7-6.8,2.9-10.8,3.3l0.6,3.3c3.7-0.5,7.3-1.3,10.8-2.4c0.3-0.5,0.4-1,0.4-1.6
			c0-0.4-0.1-0.9-0.3-1.3l-0.1-0.3C978.9,557.9,978.7,557.6,978.4,557.3"/>
	</g>
	<path class="st23" d="M966.3,614.7c2.5-0.5,5.1-1.2,7.3-2.4c0.2-0.1,0.6,0.7,0.4,0.8c-2.4,1.1-5.1,1.6-7.6,1.9L966.3,614.7z"/>
	<path class="st14" d="M953.1,572.2c0,6-3.3,10.8-7.3,10.8c-10.3,0-6.4-4.8-6.4-10.8s2.8-10.5,6.9-10.5
		C950.3,561.7,953.1,566.3,953.1,572.2"/>
	<g>
		<defs>
			<path id="SVGID_15_" d="M953.1,572.2c0,6-3.3,10.8-7.3,10.8c-10.3,0-6.4-4.8-6.4-10.8s2.8-10.5,6.9-10.5
				C950.3,561.7,953.1,566.3,953.1,572.2"/>
		</defs>
		<clipPath id="SVGID_16_">
			<use xlink:href="#SVGID_15_"  style="overflow:visible;"/>
		</clipPath>
		<path class="st24" d="M953,570c-0.7,0.3-1.6,0.4-2.5,0.4c-0.2,0-0.3,0-0.5,0c0,0.5,0.1,1.1,0.1,1.8l0,0l0,0c0,5.3-2.6,9.7-6,10.6
			c0,0,0,0.1,0.1,0.1c0.5,0,1.1,0.1,1.7,0.1c4,0,7.3-4.8,7.3-10.8C953.1,571.5,953.1,570.7,953,570"/>
	</g>
	<path class="st12" d="M950.1,572.2c0,6-3.3,10.8-7.3,10.8s-3.8-4.3-3.8-10.3s1-9,5-9C948,563.8,950.1,566.3,950.1,572.2"/>
	<g>
		<defs>
			<path id="SVGID_17_" d="M950.1,572.2c0,6-3.3,10.8-7.3,10.8s-3.8-4.3-3.8-10.3s1-9,5-9C948,563.8,950.1,566.3,950.1,572.2"/>
		</defs>
		<clipPath id="SVGID_18_">
			<use xlink:href="#SVGID_17_"  style="overflow:visible;"/>
		</clipPath>
		<path class="st25" d="M947.9,570.2c0.1,0.7,0.1,1.5,0.1,2.8c0,4.5-2.2,8.2-4.9,8.2c0.4,0.6,0.7,1.1,1,1.7c3.4-0.9,6-5.3,6-10.6
			c0-0.6,0-1.2-0.1-1.8C949.2,570.4,948.4,570.3,947.9,570.2"/>
	</g>
	<path class="st5" d="M945.6,488.7c0,0-0.8-13.8-9.3-16.6c-8.5-2.8-26.1-5.2-28.5-0.7c-2.4,4.5,11.9,12.7,23.6,13.8l-0.1-0.5
		c1.6,1.7,3.3,4,4.1,6.6L945.6,488.7"/>
	<g>
		<defs>
			<path id="SVGID_19_" d="M945.6,488.7c0,0-0.8-13.8-9.3-16.6c-8.5-2.8-26.1-5.2-28.5-0.7c-2.4,4.5,11.9,12.7,23.6,13.8l-0.1-0.5
				c1.6,1.7,3.3,4,4.1,6.6L945.6,488.7"/>
		</defs>
		<clipPath id="SVGID_20_">
			<use xlink:href="#SVGID_19_"  style="overflow:visible;"/>
		</clipPath>
		<path class="st26" d="M910.6,469.6c-1.3,0.4-2.3,1-2.7,1.8c-0.2,0.3-0.3,0.7-0.3,1.1c0,4.6,13.1,11.7,23.9,12.7l-0.1-0.5l0,0
			c0.7,0.8,1.4,1.6,2.1,2.6c0.5-1.7,1.2-3.5,2.1-5.5c-4.1-4.4-12.3-6.3-17.6-7C913.5,474.1,911.5,471.4,910.6,469.6"/>
	</g>
	<path class="st27" d="M999.7,492.7c0,0-0.4-0.2-1-0.7s-1.5-1-2.6-1.8l-0.5,0.8c2.2,1.6,3.7,2.5,3.7,2.5L999.7,492.7L999.7,492.7"/>
	<path class="st27" d="M993.2,499.1c0,0,1.3-2,2.3-4.9l-0.9-0.3c-0.4,1.4-1,2.6-1.4,3.4c-0.2,0.4-0.4,0.7-0.5,1
		c-0.1,0.1-0.1,0.2-0.2,0.2l-0.1,0.1L993.2,499.1L993.2,499.1z"/>
	<path class="st0" d="M998.5,532.7c9-20.7,8.9-30.3,9.5-34.9c0.9-8.1-9.5-15.8-12-6c-1,4-3,2-3.6,0c-0.5-1.8,0.1-3.5,3.4-1.2v0
		c-0.1,1.2-0.4,2.4-0.8,3.4l-0.1,0c0,0-8.5-3.6-20.7-6.9c-12.2-3.3-15.9-8.6-15.9-8.6c2,3.2,1.6,7.9,1.6,7.9
		c-7.8-5-15.2-1.7-15.2-1.7c5.7,0.8,7.4,3,7.4,3c-17-2-19.8,0.4-25.1,20.3c-1.5,5.5-2.6,11.2-3,16.8c-2.2-1.4-7.7-4.4-9.9-2.5
		c-2.9,2.4,6.2,5.7,6.2,5.7s-7.7,1.8-6.8,4.6c0.7,2,7,1.2,10.6,0.5c1.4,15.1,10.8,27.3,39.2,27.7c13.2,0.2,22.6-7,29.3-17.1
		c2.5,1.7,7.5,4.7,10.1,3c3.4-2.3-5.8-7.7-5.8-7.7s7.9,0.5,8.9-3.6C1006.5,532.8,1001.9,532.6,998.5,532.7"/>
	<g>
		<defs>
			<path id="SVGID_21_" d="M998.5,532.7c9-20.7,8.9-30.3,9.5-34.9c0.9-8.1-9.5-15.8-12-6c-1,4-3,2-3.6,0c-0.5-1.8,0.1-3.5,3.4-1.2v0
				c-0.1,1.2-0.4,2.4-0.8,3.4l-0.1,0c0,0-8.5-3.6-20.7-6.9c-12.2-3.3-15.9-8.6-15.9-8.6c2,3.2,1.6,7.9,1.6,7.9
				c-7.8-5-15.2-1.7-15.2-1.7c5.7,0.8,7.4,3,7.4,3c-17-2-19.8,0.4-25.1,20.3c-1.5,5.5-2.6,11.2-3,16.8c-2.2-1.4-7.7-4.4-9.9-2.5
				c-2.9,2.4,6.2,5.7,6.2,5.7s-7.7,1.8-6.8,4.6c0.7,2,7,1.2,10.6,0.5c1.4,15.1,10.8,27.3,39.2,27.7c13.2,0.2,22.6-7,29.3-17.1
				c2.5,1.7,7.5,4.7,10.1,3c3.4-2.3-5.8-7.7-5.8-7.7s7.9,0.5,8.9-3.6C1006.5,532.8,1001.9,532.6,998.5,532.7"/>
		</defs>
		<clipPath id="SVGID_22_">
			<use xlink:href="#SVGID_21_"  style="overflow:visible;"/>
		</clipPath>
		<path class="st28" d="M939.3,529.1c0,0-6.8-33.7,15.9-31.9c21.1,1.6,11.6,37.1,11.6,37.1s20.4-5,25.9,9.5
			c3.5,9.4-7.1,13.9-14.6,19.5c-7.5,5.6-34.3-2.6-44.5-8.6C917.5,545.1,921,522.4,939.3,529.1"/>
		<path class="st29" d="M1002.1,543.1l-0.1,0.7c0,0,0.5,0.7,1.4,1.3C1003.2,544.4,1002.7,543.8,1002.1,543.1 M1003.9,533.1l-0.9,5.2
			c1.3-0.5,2.5-1.4,2.8-2.8c0-0.2,0.1-0.3,0.1-0.5C1005.9,534,1005.1,533.5,1003.9,533.1 M1006,508c0,0-2.3,12.6-9.3,25.3
			c0.7-0.4,1.4-0.6,1.9-0.8c4.6-10.6,6.8-18.2,7.9-23.8L1006,508"/>
		<path class="st30" d="M991.5,541.4c-6.1,8.1-14.5,15-25.9,16.8c-5.1,0.8-10,1.2-14.6,1.2c-0.6,0-1.2,0-1.8,0
			c4.1,0.9,8.8,1.4,14.1,1.5c0.2,0,0.4,0,0.6,0c12.2,0,21.2-6.4,27.7-15.6C991.4,544.1,991.3,542.8,991.5,541.4"/>
	</g>
	<path class="st31" d="M947.6,545l0.7-7.6c0-0.2,0.9-0.1,0.9,0.1l-1.3,7.5L947.6,545z"/>
	<path class="st32" d="M931.2,484.8c-1.3-1.2-2.7-2.3-4.2-3.3c-0.1-0.1,0.4-0.8,0.5-0.7c1.4,1.1,2.7,2.4,3.9,3.8L931.2,484.8z"/>
	<path class="st33" d="M958,537.8c-0.4,2.6-5.1,3.5-9.7,2.8c-4.6-0.7-8-3.4-7.5-6c0.4-2.6,4.5-4,9-3.3S958.4,535.2,958,537.8z"/>
	<path class="st34" d="M949.4,533.7c0,0.9-1.4,1-3.2,1.1c-1.8,0-3.1,0.1-3.1-0.8s1.4-1.6,3.1-1.7C948,532.2,949.4,532.8,949.4,533.7
		z"/>
	<path class="st35" d="M1025.7,498c-0.4-8.5-2.4-16.9-5.9-24.6c-3.5-7.7-8.6-14.7-14.7-20.5c-6.2-5.8-13.5-10.4-21.4-13.5
		c-7.9-3.1-16.4-4.5-24.9-4.4c-8.5,0.1-16.9,1.9-24.7,5.3c-7.8,3.3-14.9,8.2-20.9,14.2c-6,6-10.7,13.2-14,21c-3.2,7.8-5,16.3-5,24.8
		c0,8.5,1.5,17,4.7,24.8c3.2,7.9,7.9,15.1,13.7,21.2c5.9,6.1,12.9,11,20.7,14.5c7.7,3.4,16.2,5.3,24.6,5.6c8.5,0.3,17-1.1,24.9-4.1
		c7.9-3,15.3-7.5,21.5-13.2c6.2-5.7,11.4-12.7,15-20.4c3.6-7.7,5.7-16,6.2-24.5c0.1-4.7-1.9-4.6-2-0.1c-0.4,8.2-2.5,16.3-6,23.7
		c-3.5,7.4-8.5,14.2-14.5,19.7c-6,5.6-13.2,10-20.8,12.8c-7.7,2.9-15.9,4.2-24.1,4c-8.2-0.2-16.4-2.1-23.9-5.4
		c-7.5-3.3-14.4-8.1-20.1-14c-5.7-5.9-10.3-12.9-13.3-20.5c-3.1-7.6-4.6-15.8-4.6-24c0-8.2,1.7-16.4,4.8-24
		c3.1-7.6,7.8-14.5,13.5-20.4c5.8-5.8,12.7-10.6,20.2-13.8c7.5-3.2,15.7-5,23.9-5.1c8.2-0.2,16.4,1.3,24.1,4.2
		c7.7,3,14.7,7.4,20.7,13.1c6,5.6,10.9,12.4,14.3,19.9c3.4,7.5,5.4,15.6,5.7,23.8C1023.7,501.6,1025.8,501.7,1025.7,498"/>
	<path class="st36" d="M964.2,534.8c-1.2-0.3-2-1.3-2.1-2.6c-0.2-5.7,0.6-21.5,13.9-22.6c16.3-1.4,14.6,20.8,6.5,24.7
		C976.4,537.2,967.9,535.7,964.2,534.8z M938.6,530.7c1.5,0.2,2.9-0.9,3.1-2.4c0.6-5.5,1.5-17.9-3.1-19.3
		c-5.9-1.9-12.3,12.6-11.2,16.4C928.2,528.4,934.3,530.1,938.6,530.7z"/>
	<g>
		<defs>
			<path id="SVGID_23_" d="M964.2,534.8c-1.2-0.3-2-1.3-2.1-2.6c-0.2-5.7,0.6-21.5,13.9-22.6c16.3-1.4,14.6,20.8,6.5,24.7
				C976.4,537.2,967.9,535.7,964.2,534.8 M938.6,530.7c1.5,0.2,2.9-0.9,3.1-2.4c0.6-5.5,1.5-17.9-3.1-19.3
				c-5.9-1.9-12.3,12.6-11.2,16.4C928.2,528.4,934.3,530.1,938.6,530.7"/>
		</defs>
		<clipPath id="SVGID_24_">
			<use xlink:href="#SVGID_23_"  style="overflow:visible;"/>
		</clipPath>
		<path class="st37" d="M941.4,521.1c-1.4,0-2.4-1.1-2.4-2.4c0-1.4,1.1-2.4,2.4-2.4c0.4,0,0.7,0.1,1,0.2c-0.6-1.5-1.7-2.6-3-2.8
			c-2.5-0.3-4.9,2.6-5.4,6.6s1.1,7.4,3.6,7.7c2.5,0.3,4.9-2.6,5.4-6.6c0-0.3,0.1-0.6,0.1-1C942.6,520.8,942,521.1,941.4,521.1z"/>
	</g>
	<path class="st38" d="M964.2,534.8l0.1-0.3c-1-0.3-1.8-1.2-1.8-2.2c0-0.4,0-0.7,0-1.2c0-3.2,0.4-8.2,2.3-12.6
		c0.9-2.2,2.3-4.2,4.1-5.7c1.8-1.5,4.2-2.6,7.3-2.8c0.5,0,1-0.1,1.4-0.1c3.9,0,6.5,1.5,8.2,3.6c1.7,2.2,2.5,5.2,2.5,8.2
		c0,2.6-0.6,5.3-1.6,7.5c-1,2.2-2.5,3.9-4.2,4.8c-2.6,1.3-5.7,1.7-8.7,1.7c-3.8,0-7.3-0.7-9.4-1.2L964.2,534.8l-0.1,0.3
		c2.1,0.5,5.7,1.2,9.5,1.2c3,0,6.2-0.4,9-1.8c1.9-0.9,3.5-2.8,4.5-5.1c1.1-2.3,1.7-5,1.7-7.8c0-3.1-0.8-6.3-2.6-8.6
		c-1.8-2.4-4.7-3.9-8.7-3.9c-0.5,0-1,0-1.5,0.1c-3.2,0.3-5.7,1.4-7.6,3c-2.9,2.4-4.6,5.9-5.5,9.4c-0.9,3.5-1.1,7-1.1,9.4
		c0,0.4,0,0.8,0,1.2c0,1.4,1,2.6,2.3,2.9L964.2,534.8z M938.6,530.7l0,0.3c0.1,0,0.3,0,0.4,0c1.5,0,2.8-1.2,3-2.7
		c0.2-2.1,0.5-5.1,0.5-8.2c0-2.6-0.2-5.1-0.7-7.2c-0.3-1-0.6-2-1.1-2.7c-0.5-0.7-1.1-1.3-1.9-1.5c-0.4-0.1-0.8-0.2-1.2-0.2
		c-1.4,0-2.8,0.7-4,1.9c-1.9,1.7-3.5,4.3-4.7,6.9c-1.2,2.6-1.9,5.2-1.9,7c0,0.4,0,0.8,0.1,1.1c0.5,1.7,2.3,2.9,4.5,3.8
		c2.2,0.9,4.8,1.5,7,1.8L938.6,530.7l0-0.3c-2.1-0.3-4.7-0.9-6.8-1.7c-2.1-0.9-3.8-2-4.1-3.4c-0.1-0.2-0.1-0.6-0.1-0.9
		c0-2.1,1.3-6,3.2-9.3c0.9-1.6,2.1-3.1,3.2-4.2c1.2-1.1,2.4-1.7,3.5-1.7c0.3,0,0.6,0,1,0.1c0.6,0.2,1.1,0.6,1.6,1.3
		c1.3,1.9,1.8,5.7,1.8,9.5c0,3.1-0.3,6.1-0.5,8.2c-0.1,1.2-1.2,2.1-2.3,2.1c-0.1,0-0.2,0-0.3,0L938.6,530.7z"/>
	<path class="st38" d="M978.3,524.4c-1.4,0-2.4-1.1-2.4-2.4c0-1.4,1.1-2.4,2.4-2.4c0.2,0,0.3,0,0.5,0c-0.7-1.2-1.7-2-2.8-2.1
		c-2.7-0.4-5.3,2.8-5.9,7.1c-0.6,4.3,1.2,8,3.9,8.4s5.3-2.8,5.9-7.1c0.1-0.7,0.1-1.4,0.1-2C979.5,524.2,978.9,524.4,978.3,524.4z"/>
	<path class="st39" d="M948,547.9c0,0,8.5,1.6,16.1-3.6c0,0,0.8,7.9-5.4,8.7C952.6,553.7,948,547.9,948,547.9z"/>
	<path class="st40" d="M932,493.8c0,0,10.1,2.3,18.5,7.5c10.5,6.5,19,4.7,23.5,2.5c10-5,10.5-11.5,10.5-11.5l-23-8l-26,6L932,493.8"
		/>
	<path class="st41" d="M986.6,466.5c-4.3-1.4-9.4-2.5-15.1-3.2c-35.7-4.5-39.5,30.5-39.5,30.5c27.5-7.2,51.3-0.7,64,4.9
		C997.7,490.7,998.7,475.8,986.6,466.5"/>
	<g>
		<defs>
			<path id="SVGID_25_" d="M986.6,466.5c-4.3-1.4-9.4-2.5-15.1-3.2c-35.7-4.5-39.5,30.5-39.5,30.5c27.5-7.2,51.3-0.7,64,4.9
				C997.7,490.7,998.7,475.8,986.6,466.5"/>
		</defs>
		<clipPath id="SVGID_26_">
			<use xlink:href="#SVGID_25_"  style="overflow:visible;"/>
		</clipPath>
		<g class="st42">
			<defs>
				<polyline id="SVGID_27_" points="948.4,486.3 948.5,471.9 961.7,470 961.7,484.4 948.4,486.3 				"/>
			</defs>
			<clipPath id="SVGID_28_">
				<use xlink:href="#SVGID_27_"  style="overflow:visible;"/>
			</clipPath>
			<path class="st43" d="M955.6,474.2l-0.7,6.1l0.8,0l0.2,0c0.3,0,0.6-0.2,0.9-0.4c0.4-0.3,0.6-0.6,0.9-1.1c0.2-0.5,0.4-1,0.4-1.6
				c0.1-0.8,0-1.6-0.4-2.2c-0.3-0.5-0.9-0.8-1.6-0.8L955.6,474.2 M952.9,482.8l-0.8,0l1-8.6l-0.8,0l0.1-0.6l2.5,0l1,0
				c1.1,0,2,0.3,2.6,0.9c0.6,0.6,0.8,1.5,0.6,2.6c-0.1,0.7-0.3,1.4-0.6,1.9c-0.3,0.6-0.8,1-1.3,1.3c-0.4,0.2-0.8,0.4-1.3,0.5
				c-0.2,0-0.3,0-0.5,0l-0.5,0l-0.2,1.9l-0.8,0l1-8.6l-1,0L952.9,482.8 M950.9,471.6c-0.6,0.1-1.2,0.7-1.3,1.4l-1.2,10.5
				c-0.1,0.8,0.4,1.4,1.1,1.4l9.6-0.1l0.2,0c0.6-0.1,1.2-0.7,1.3-1.4l1.2-10.5c0.1-0.8-0.4-1.4-1.1-1.4l-9.6,0.1L950.9,471.6"/>
			<path class="st44" d="M956,480.2l-0.2,0l-0.8,0l0.7-6.1l0.6,0c0.8,0,1.3,0.3,1.6,0.8c0.4,0.6,0.5,1.4,0.4,2.2
				c-0.1,0.6-0.2,1.2-0.4,1.6c-0.2,0.5-0.5,0.8-0.9,1.1C956.6,480.1,956.3,480.2,956,480.2 M952.4,473.6l-0.1,0.6l0.8,0l-1,8.6
				l0.8,0l1-8.6l1,0l-1,8.6l0.8,0l0.2-1.9l0.5,0c0.2,0,0.3,0,0.5,0c0.5-0.1,0.9-0.2,1.3-0.5c0.5-0.3,1-0.7,1.3-1.3
				c0.3-0.6,0.5-1.2,0.6-1.9c0.1-1.1-0.1-2-0.6-2.6c-0.6-0.6-1.4-0.9-2.6-0.9l-1,0L952.4,473.6"/>
		</g>
		<g class="st42">
			<defs>
				<path id="SVGID_29_" d="M963.9,462.9c-16.4,0.6-24.4,10.5-28.4,18.9c-0.9,2-1.6,3.8-2.1,5.5c-1.2,3.8-1.5,6.5-1.5,6.5
					c2.9-0.8,5.8-1.4,8.6-1.9c0.6-3.4,1.4-7.2,2.4-11.1C945.7,469.4,956.8,464.8,963.9,462.9"/>
			</defs>
			<clipPath id="SVGID_30_">
				<use xlink:href="#SVGID_29_"  style="overflow:visible;"/>
			</clipPath>
			<rect x="932" y="462.9" class="st45" width="32" height="30.9"/>
		</g>
	</g>
	<path class="st46" d="M986.6,466.5c12,9.3,11.1,24.2,9.4,32.2c6.7,3,10.5,5.6,10.5,5.6C1011.4,486.3,1006.2,472.9,986.6,466.5"/>
	<path class="st5" d="M993.6,475.9c0,0-22.3-17.9-17.2-24.2c5.1-6.2,29.5,8.4,30.7,16.3c1,6.2-1.7,22-6.8,22.2
		c-5.1,0.2-11.7-3-9.9-7.7C992.3,477.7,993.6,475.9,993.6,475.9"/>
	<g>
		<defs>
			<path id="SVGID_31_" d="M993.6,475.9c0,0-22.3-17.9-17.2-24.2c5.1-6.2,29.5,8.4,30.7,16.3c1,6.2-1.7,22-6.8,22.2
				c-5.1,0.2-11.7-3-9.9-7.7C992.3,477.7,993.6,475.9,993.6,475.9"/>
		</defs>
		<clipPath id="SVGID_32_">
			<use xlink:href="#SVGID_31_"  style="overflow:visible;"/>
		</clipPath>
		<path class="st47" d="M979.4,450.3c-1.3,0.1-2.3,0.6-3,1.5c-0.5,0.6-0.8,1.4-0.8,2.3c0,7.5,18,21.9,18,21.9l0,0l0,0
			c0,0-1.3,1.8-3.1,6.6c-0.2,0.6-0.3,1.1-0.3,1.6c0,3.6,4.9,5.9,9.2,6.1c1.1-1.6,2.1-3.6,2.6-5.6c-2.8-0.7-5.4-3.8-7.8-7.8
			c0-0.1-0.1-0.2-0.1-0.2c-0.2-0.2-0.3-0.3-0.5-0.5l0.1-0.1c-1.8-3.2-3-6.2-2.8-8.7c-4.1-4.5-8.1-8.8-9.9-11.5
			C979.1,453,979,451.3,979.4,450.3"/>
	</g>
	<path class="st32" d="M993.7,475.8c1.9,1.7,3.6,3.6,5.2,5.6c0.1,0.2-0.6,0.7-0.7,0.5c-1.4-2.1-2.9-4.1-4.7-5.9L993.7,475.8"/>
	<path class="st0" d="M943.1,581.2c2.7,0,4.9-3.7,4.9-8.2c0-2.9-0.1-3.5-1-5.3c-0.8-1.6-3.7-2.7-5.7-1.1
		c-5.6,4.5-11.3,13.3-11.6,16.8c-0.4,4.3,10.2,11.1,10.2,11.1s-3.2,0-4.1,2.4c-0.9,2.4,4.8,2.7,7.2,0
		C945.4,594.2,947,587.1,943.1,581.2"/>
	<g>
		<defs>
			<path id="SVGID_33_" d="M943.1,581.2c2.7,0,4.9-3.7,4.9-8.2c0-2.9-0.1-3.5-1-5.3c-0.8-1.6-3.7-2.7-5.7-1.1
				c-5.6,4.5-11.3,13.3-11.6,16.8c-0.4,4.3,10.2,11.1,10.2,11.1s-3.2,0-4.1,2.4c-0.9,2.4,4.8,2.7,7.2,0
				C945.4,594.2,947,587.1,943.1,581.2"/>
		</defs>
		<clipPath id="SVGID_34_">
			<use xlink:href="#SVGID_33_"  style="overflow:visible;"/>
		</clipPath>
		<path class="st48" d="M932.1,589.5c0,0,9.6,0.4,17-3.6c7.5-4,2.2,9.7,2.2,9.7l-15.3,9.5l-6.2-3.3L932.1,589.5"/>
		<path class="st49" d="M947.9,574.7c-4.1,3-8.6,4.3-8.6,4.3c2.1,3.4,3.1,6.6,3.4,9.3c0.9-0.2,1.8-0.5,2.7-0.8
			c-0.2-2.1-0.9-4.3-2.3-6.4l0,0l0,0C945.4,581.2,947.4,578.4,947.9,574.7"/>
		<path class="st50" d="M945.4,587.6L945.4,587.6c-0.9,0.3-1.8,0.6-2.7,0.8c0.8,5.6-0.9,9.5-0.9,9.5l0,0c0.4-0.3,0.8-0.6,1.2-0.9
			c1.3-1.5,2.4-4.4,2.4-7.7C945.5,588.6,945.5,588.1,945.4,587.6"/>
	</g>
	<polygon class="st51" points="1010,533.8 1006.5,534.3 1004.5,546.3 1008.5,547.3 1011.5,544.3 	"/>
	<path class="st51" d="M1004,532.8l-4.5-0.5c0,0-7,1-8,9c-1,7.9,5,11,5,11l-4,19c0,0-0.4,4.7,4.8,5.4s6.2-25.4,6.2-25.4l-4-8
		L1004,532.8"/>
	<g>
		<defs>
			<path id="SVGID_35_" d="M1004,532.8l-4.5-0.5c0,0-7,1-8,9c-1,7.9,5,11,5,11l-4,19c0,0-0.4,4.7,4.8,5.4s6.2-25.4,6.2-25.4l-4-8
				L1004,532.8"/>
		</defs>
		<clipPath id="SVGID_36_">
			<use xlink:href="#SVGID_35_"  style="overflow:visible;"/>
		</clipPath>
		<polyline class="st52" points="1003,551.8 989,552.8 988,577.8 1001,581.8 1007,573.8 1003,551.8 		"/>
	</g>
	<path class="st53" d="M1004,532.8l-2,11c0,0,2.5,3.5,6.5,1.5l1.5-11.5c0,0,6,3,5,10c-1,7-9,9-9,9l-4.4,21.3
		c-0.3,1.6-1.7,2.7-3.3,2.7c-2.2,0-3.8-2-3.3-4.1l5-20.9c0,0-5.8-4-5-10C996,533.8,1004,532.8,1004,532.8"/>
	<path class="st51" d="M1000,573.6l4-19c0.2-0.8-0.3-1.6-1.2-1.8c-0.8-0.2-1.6,0.3-1.8,1.2l-4,19c-0.2,0.8,0.3,1.6,1.2,1.8
		C999,574.9,999.8,574.4,1000,573.6"/>
	<path class="st54" d="M993.5,556.3c-0.6,1.3-2,4-1,5c1,1,6,0,7-3C1000.5,555.3,995.5,552.3,993.5,556.3"/>
	<g>
		<defs>
			<path id="SVGID_37_" d="M993.5,556.3c-0.6,1.3-2,4-1,5c1,1,6,0,7-3C1000.5,555.3,995.5,552.3,993.5,556.3"/>
		</defs>
		<clipPath id="SVGID_38_">
			<use xlink:href="#SVGID_37_"  style="overflow:visible;"/>
		</clipPath>
		<path class="st55" d="M999.6,557.8c-0.8,0.5-1.9,1.2-3.6,2c-0.6,0.3-1.1,0.4-1.5,0.4c-1,0-1.7-0.8-2-1.7c-0.2,0.6-0.4,1.2-0.4,1.7
			c0,0.4,0.1,0.8,0.4,1c0.3,0.3,0.8,0.4,1.4,0.4c0.9,0,2-0.3,3.1-0.8c0.5-0.6,1-1.1,1.6-1.6c0.3-0.2,0.6-0.5,0.9-0.7
			c0.1-0.1,0.1-0.2,0.1-0.3C999.5,558.1,999.6,558,999.6,557.8"/>
	</g>
	<path class="st54" d="M998.5,559.3c-2.8,2.3-4.3,6.2-2.6,8.5c2.6,3.5,11.6,0.5,11.6-5.5C1007.5,556.3,1002.9,555.7,998.5,559.3"/>
	<g>
		<defs>
			<path id="SVGID_39_" d="M998.5,559.3c-2.8,2.3-4.3,6.2-2.6,8.5c2.6,3.5,11.6,0.5,11.6-5.5C1007.5,556.3,1002.9,555.7,998.5,559.3
				"/>
		</defs>
		<clipPath id="SVGID_40_">
			<use xlink:href="#SVGID_39_"  style="overflow:visible;"/>
		</clipPath>
		<path class="st56" d="M996.3,561.7c-0.7,1.2-1.2,2.5-1.2,3.7c0,0.9,0.2,1.7,0.7,2.4c0.8,1,2,1.5,3.5,1.5c1.1,0,2.2-0.2,3.3-0.7
			C998.6,568.3,996.9,564.2,996.3,561.7"/>
	</g>
	<path class="st57" d="M1007.2,468.6c0.4,3.2-0.1,8.4-1.2,12.9c0.3,0.6,0.5,1.2,0.7,1.8c3.4-2.9,3.8-9,0.7-14.3
		C1007.3,468.9,1007.2,468.7,1007.2,468.6"/>
	<path class="st58" d="M1006,481.5c-0.2,1-0.5,1.9-0.8,2.8c0.2-0.1,0.4-0.2,0.6-0.3c0.3-0.2,0.7-0.4,0.9-0.7
		C1006.5,482.7,1006.2,482.1,1006,481.5"/>
	<path class="st59" d="M997.1,462.2c-1.3,0-2.5,0.3-3.6,1c-1.7,1-2.5,2.4-2.6,4.1c5.2,5.8,10.5,11.7,11.1,14.5
		c0.2,0.9,0.1,1.8-0.1,2.8c0.4,0.1,0.8,0.2,1.2,0.2c0.7,0,1.3-0.1,2-0.5c0.3-0.9,0.6-1.8,0.8-2.8c1.1-4.5,1.6-9.6,1.2-12.9
		C1004.6,464.6,1000.7,462.2,997.1,462.2"/>
	<path class="st60" d="M990.9,467.3c-0.2,2.4,1,5.5,2.8,8.7l0.1-0.1c1.9,1.7,3.6,3.6,5.2,5.6c0.1,0.1-0.4,0.6-0.7,0.6
		c0,0-0.1,0-0.1,0c-1.3-1.9-2.7-3.7-4.2-5.4c0,0.1,0.1,0.2,0.1,0.2c2.4,4,5,7.1,7.8,7.8c0.2-1,0.3-1.9,0.1-2.8
		C1001.4,479,996.1,473,990.9,467.3"/>
	<path class="st61" d="M993.7,475.8L993.7,475.8c0,0.3,0.1,0.5,0.3,0.7c1.6,1.7,2.9,3.5,4.2,5.4c0,0,0,0,0.1,0
		c0.2,0,0.8-0.4,0.7-0.6C997.4,479.4,995.7,477.5,993.7,475.8"/>
	<path class="st57" d="M1011.4,490.7c-0.2,0-0.3,0-0.5,0c-1.7,0.3-2.7,2.2-2.3,4.2c0.3,1.8,1.7,3.1,3.2,3.1c0.2,0,0.3,0,0.5,0
		c1.7-0.3,2.7-2.2,2.3-4.2C1014.2,492,1012.8,490.7,1011.4,490.7"/>
</g>
</svg>
