<svg xmlns="http://www.w3.org/2000/svg" xmlns:xlink="http://www.w3.org/1999/xlink" viewBox="0 0 655.45 781.24"><defs><style>.cls-1{fill:#53535e;}.cls-2{fill:#b5b5b5;}.cls-3{fill:#60d6af;}.cls-4{isolation:isolate;}.cls-5{fill:#fa4444;}.cls-6{fill:#ff6214;}.cls-7{fill:#ffb514;}.cls-8{fill:#838396;}.cls-9{fill:#cc3737;}.cls-10{fill:#ebebeb;}.cls-11{fill:#bfbfbf;}.cls-12{clip-path:url(#clip-path);}.cls-13,.cls-18,.cls-25,.cls-33{fill:none;}.cls-13{stroke:#202024;stroke-width:1.91px;}.cls-13,.cls-18,.cls-25{stroke-miterlimit:10;}.cls-14{fill:#71608c;}.cls-14,.cls-23{mix-blend-mode:multiply;opacity:0.2;}.cls-15{clip-path:url(#clip-path-2);}.cls-16{fill:#d8d8f0;}.cls-17{fill:#4ead8e;}.cls-18{stroke:#2d2d33;}.cls-18,.cls-25{stroke-width:2.03px;}.cls-19{fill:#398dfa;}.cls-20{fill:#39b0fa;}.cls-21{fill:#fefefe;}.cls-22{clip-path:url(#clip-path-3);}.cls-23{fill:#81828a;}.cls-24{clip-path:url(#clip-path-4);}.cls-25{stroke:#39b0fa;}.cls-26{fill:#34343b;}.cls-27{fill:#8dc1e3;}.cls-28{fill:#422f59;}.cls-29{clip-path:url(#clip-path-5);}.cls-30{clip-path:url(#clip-path-6);}.cls-31{fill:#b3b9db;}.cls-32{fill:#8f95b8;}.cls-33{stroke:#d3dfe6;stroke-linecap:round;stroke-linejoin:round;stroke-width:5px;}.cls-34{fill:#d3dfe6;}</style><clipPath id="clip-path"><path class="cls-1" d="M515.84,281.36a6.59,6.59,0,0,1-.59,1.37c-31.89,55.47-80.32,78.41-82.37,79.36a6.6,6.6,0,0,1-5.56-12h0c.46-.22,46.77-22.28,76.49-74a6.59,6.59,0,0,1,12,5.2Z"/></clipPath><clipPath id="clip-path-2"><path id="SVGID" class="cls-2" d="M496.23,247.2l15.54,5.24s-10.84,13.56-2,18.25S523,257.49,523,257.49l13.56,5.06s-7.22,30.73-32.53,20.94C481.64,274.83,496.23,247.2,496.23,247.2Z"/></clipPath><clipPath id="clip-path-3"><path class="cls-3" d="M256.4,249.72c2.63,18.08,6.39,32.89-10.61,35.36s-32.89-10.19-35.52-28.27,9-34.74,26-37.21S253.77,231.64,256.4,249.72Zm199.57-86c-17,2.47-28.37,21-25.42,41.32s19.13,34.85,36.13,32.38,28.37-21,25.41-41.32S473,161.29,456,163.76Z"/></clipPath><clipPath id="clip-path-4"><path class="cls-2" d="M339.3,131.57c-79.31,19.93-120,33.88-115,85.76s15.1,114,74.18,105.76,187.61-36.39,191.3-73.82-7.87-107-32.66-124.22S383.92,120.36,339.3,131.57Z"/></clipPath><clipPath id="clip-path-5"><path class="cls-1" d="M207.61,312.25a6.6,6.6,0,0,1,9.33-.23c43.2,41.09,93.87,49.06,94.37,49.14h0a6.6,6.6,0,0,1-1.92,13c-2.23-.32-55.19-8.54-101.55-52.63a6.83,6.83,0,0,1-1-1.14A6.61,6.61,0,0,1,207.61,312.25Z"/></clipPath><clipPath id="clip-path-6"><path id="SVGID-2" data-name="SVGID" class="cls-2" d="M216,282.1l-13.42,9.45s14.26,9.91,7.1,16.94-16.4-8.9-16.4-8.9l-11.56,8.7s15.67,27.41,37.14,10.81C237.81,304.44,216,282.1,216,282.1Z"/></clipPath></defs><g class="cls-4"><g id="Layer_2" data-name="Layer 2"><g id="Layer_1-2" data-name="Layer 1"><path class="cls-5" d="M191.78,775.44a4.79,4.79,0,0,1-1.3-2.88c0-.85.71-2,2.15-3.37a3.78,3.78,0,0,1,2.65-1.2q1.4,0,3.9,2.5a7.44,7.44,0,0,0,2,1.62,4.7,4.7,0,0,0,2.4.78q4.65,0,4.65-3.8a2.26,2.26,0,0,0-1.28-1.93,9.44,9.44,0,0,0-3.17-1.12,27.46,27.46,0,0,1-4.1-1.13,26,26,0,0,1-4.1-1.82,8.27,8.27,0,0,1-3.18-3.33,11,11,0,0,1-1.27-5.47,10.53,10.53,0,0,1,3.27-7.68q3.27-3.27,8.93-3.27a18.44,18.44,0,0,1,5.47.77,10.52,10.52,0,0,1,3.43,1.58l1.25.95a3.9,3.9,0,0,1,1.55,2.45,5.56,5.56,0,0,1-1.2,2.75c-1.14,1.66-2.3,2.5-3.5,2.5a5.18,5.18,0,0,1-2.6-1,6.93,6.93,0,0,1-.58-.5,6.5,6.5,0,0,0-.77-.65,5,5,0,0,0-2.68-.65,4.56,4.56,0,0,0-2.7.77,2.5,2.5,0,0,0-1.07,2.15,2.58,2.58,0,0,0,1.27,2.23,8,8,0,0,0,3.18,1.15,39.28,39.28,0,0,1,4.15.92,26.28,26.28,0,0,1,4.15,1.53,7.36,7.36,0,0,1,3.17,3.12,10.89,10.89,0,0,1,1.28,5.48,12.21,12.21,0,0,1-1.3,5.72,9.94,9.94,0,0,1-3.4,3.83,15.59,15.59,0,0,1-8.65,2.65,16.9,16.9,0,0,1-4.45-.58,14.16,14.16,0,0,1-7.1-4.52Z"/><path class="cls-5" d="M229,757.74c1.56-2.37,3.45-3.55,5.65-3.55a8.2,8.2,0,0,1,7.6,4.35,15.55,15.55,0,0,1,1.32-1.58,10.9,10.9,0,0,1,2.48-1.8,6.93,6.93,0,0,1,3.5-1,8.56,8.56,0,0,1,6.7,3.07q2.7,3.07,2.7,10.18v8.75a14.24,14.24,0,0,1-.08,1.72,4.11,4.11,0,0,1-.47,1.33c-.44.9-1.72,1.35-3.85,1.35s-3.39-.47-3.85-1.4a4.43,4.43,0,0,1-.43-1.33,14.71,14.71,0,0,1-.07-1.72v-8.75c0-2.9-1-4.35-3.1-4.35a2.46,2.46,0,0,0-2.38,1.15,6.85,6.85,0,0,0-.62,3.25v8.75a14.22,14.22,0,0,1-.08,1.75,4.23,4.23,0,0,1-.47,1.3q-.71,1.35-3.9,1.35c-2.1,0-3.39-.47-3.85-1.4a4.43,4.43,0,0,1-.43-1.33,14.71,14.71,0,0,1-.07-1.72v-8.75c0-2.9-1-4.35-3.1-4.35s-3,1.45-3,4.35v8.85a14.24,14.24,0,0,1-.08,1.72,4.11,4.11,0,0,1-.47,1.33c-.5.86-1.8,1.3-3.9,1.3s-3.39-.45-3.85-1.35a4.56,4.56,0,0,1-.43-1.3,14.73,14.73,0,0,1-.07-1.75v-17.6a14.9,14.9,0,0,1,.07-1.73,3.47,3.47,0,0,1,.48-1.27c.5-.9,1.68-1.35,3.55-1.35s3.08.3,3.65.9A3.67,3.67,0,0,1,229,757.74Z"/><path class="cls-5" d="M280,757c.2-1.87,1.51-2.8,4-2.8a10.39,10.39,0,0,1,2.9.3,2.1,2.1,0,0,1,1.32,1.05,4.29,4.29,0,0,1,.45,1.32,14.43,14.43,0,0,1,.08,1.73v17.5a14.24,14.24,0,0,1-.08,1.72,4.67,4.67,0,0,1-.42,1.33c-.47.86-1.61,1.3-3.43,1.3a6.74,6.74,0,0,1-3.65-.68,2.69,2.69,0,0,1-1.07-2c-1.24,1.76-3.3,2.65-6.18,2.65s-5.56-1.32-8-4a13.18,13.18,0,0,1,0-18.33q3.72-3.91,8.18-3.92a7.83,7.83,0,0,1,3.1.6,7,7,0,0,1,1.95,1.12A7.44,7.44,0,0,1,280,757Zm-9.1,10.4a4.12,4.12,0,0,0,1.3,3,4.21,4.21,0,0,0,3.15,1.33,4,4,0,0,0,3.07-1.35,4.32,4.32,0,0,0,1.23-3,4.63,4.63,0,0,0-1.18-3,3.87,3.87,0,0,0-3.15-1.4,4,4,0,0,0-3.2,1.4A4.51,4.51,0,0,0,270.93,767.44Z"/><path class="cls-5" d="M301.93,771.74a3.21,3.21,0,0,1,2.45.85c.53.56.8,1.73.8,3.5s-.29,2.94-.85,3.52a3.25,3.25,0,0,1-2.45.88q-5.06,0-7.1-2.43c-1.37-1.61-2-4.31-2-8.07V746.14a14.9,14.9,0,0,1,.07-1.73,4.47,4.47,0,0,1,.43-1.32c.46-.87,1.76-1.3,3.9-1.3s3.3.46,3.8,1.4a3.62,3.62,0,0,1,.47,1.27,14.43,14.43,0,0,1,.08,1.73v24C301.48,771.22,301.63,771.74,301.93,771.74Zm13.45-.3a4.17,4.17,0,0,0,2.05.3,4.36,4.36,0,0,1,2.75.85c.73.56,1.1,1.73,1.1,3.5s-.4,2.94-1.18,3.52a5.32,5.32,0,0,1-3.27.88q-10.6,0-10.6-10.5l-.05-23.85a14.9,14.9,0,0,1,.07-1.73,4,4,0,0,1,.48-1.32c.5-.87,1.8-1.3,3.9-1.3s3.3.46,3.8,1.4a6.86,6.86,0,0,1,.55,3v24A1.51,1.51,0,0,0,315.38,771.44Z"/><path class="cls-5" d="M339.08,743.89h27.8a5.51,5.51,0,0,1,2.34.37,1.87,1.87,0,0,1,1,1.18,7.08,7.08,0,0,1,.25,2.1,6.82,6.82,0,0,1-.25,2.07,1.72,1.72,0,0,1-.84,1.08,5.89,5.89,0,0,1-2.55.45h-9.56v25.15a14.21,14.21,0,0,1-.07,1.7,4.06,4.06,0,0,1-.45,1.27,2.1,2.1,0,0,1-1.33,1,8.48,8.48,0,0,1-2.5.3,8.26,8.26,0,0,1-2.47-.3,2.09,2.09,0,0,1-1.3-1,4,4,0,0,1-.45-1.3,14.71,14.71,0,0,1-.07-1.72v-25.1H339a5.54,5.54,0,0,1-2.35-.38,1.91,1.91,0,0,1-1-1.17,7.53,7.53,0,0,1-.25-2.1,7.23,7.23,0,0,1,.25-2.08,1.77,1.77,0,0,1,.85-1.07A5.87,5.87,0,0,1,339.08,743.89Z"/><path class="cls-5" d="M392.63,764.26a6.06,6.06,0,0,1-1.53,4.55,4.74,4.74,0,0,1-3.37,1.48H375.88a2.74,2.74,0,0,0,1.64,2.35,6.65,6.65,0,0,0,3.3,1,13.84,13.84,0,0,0,4.56-.6l.54-.2a5,5,0,0,1,2-.55c1.07,0,2,.75,2.75,2.25a5.39,5.39,0,0,1,.65,2.3q0,4.44-10.65,4.45A16.08,16.08,0,0,1,374.1,780a11.07,11.07,0,0,1-4.47-3.37,14.34,14.34,0,0,1-3.16-9.05,13.08,13.08,0,0,1,4.08-10.08,14.44,14.44,0,0,1,10.18-3.77q6.94,0,10.19,4.9A10.1,10.1,0,0,1,392.63,764.26Zm-10.56,1.48c1.27,0,1.91-.54,1.91-1.6a2.25,2.25,0,0,0-.88-1.85,3.9,3.9,0,0,0-2.5-.7,5,5,0,0,0-3.22,1.32,3.74,3.74,0,0,0-1.61,2.83Z"/><path class="cls-5" d="M413,757q.3-2.81,3.95-2.8a10.34,10.34,0,0,1,2.9.3,2.09,2.09,0,0,1,1.33,1.05,4.29,4.29,0,0,1,.45,1.32,14.9,14.9,0,0,1,.07,1.73v17.5a14.71,14.71,0,0,1-.07,1.72,4.43,4.43,0,0,1-.43,1.33c-.46.86-1.61,1.3-3.42,1.3a6.74,6.74,0,0,1-3.65-.68,2.7,2.7,0,0,1-1.08-2c-1.23,1.76-3.29,2.65-6.17,2.65s-5.56-1.32-8-4a13,13,0,0,1-3.7-9.18,12.91,12.91,0,0,1,3.73-9.15q3.72-3.91,8.17-3.92a7.76,7.76,0,0,1,3.1.6,6.7,6.7,0,0,1,1.95,1.12A6.31,6.31,0,0,1,413,757Zm-9.1,10.4a4.16,4.16,0,0,0,1.3,3,4.24,4.24,0,0,0,3.15,1.33,4,4,0,0,0,3.08-1.35,4.31,4.31,0,0,0,1.22-3,4.62,4.62,0,0,0-1.17-3,3.89,3.89,0,0,0-3.15-1.4,4,4,0,0,0-3.2,1.4A4.52,4.52,0,0,0,403.87,767.44Z"/><path class="cls-5" d="M434.27,757.74q2.36-3.56,5.65-3.55a8.19,8.19,0,0,1,7.6,4.35,17.2,17.2,0,0,1,1.33-1.58,11,11,0,0,1,2.47-1.8,7,7,0,0,1,3.5-1,8.55,8.55,0,0,1,6.7,3.07q2.7,3.07,2.7,10.18v8.75a14.71,14.71,0,0,1-.07,1.72,3.93,3.93,0,0,1-.48,1.33c-.43.9-1.71,1.35-3.85,1.35s-3.38-.47-3.85-1.4a4.67,4.67,0,0,1-.42-1.33,14.24,14.24,0,0,1-.08-1.72v-8.75q0-4.35-3.1-4.35a2.44,2.44,0,0,0-2.37,1.15,6.84,6.84,0,0,0-.63,3.25v8.75a14.73,14.73,0,0,1-.07,1.75,4,4,0,0,1-.48,1.3q-.69,1.35-3.9,1.35c-2.1,0-3.38-.47-3.85-1.4a4.67,4.67,0,0,1-.42-1.33,14.24,14.24,0,0,1-.08-1.72v-8.75q0-4.35-3.1-4.35t-3,4.35v8.85a14.71,14.71,0,0,1-.07,1.72,3.93,3.93,0,0,1-.48,1.33c-.5.86-1.8,1.3-3.9,1.3s-3.38-.45-3.85-1.35a4.82,4.82,0,0,1-.42-1.3,14.22,14.22,0,0,1-.08-1.75v-17.6a14.43,14.43,0,0,1,.08-1.73,3.62,3.62,0,0,1,.47-1.27c.5-.9,1.69-1.35,3.55-1.35s3.09.3,3.65.9A3.62,3.62,0,0,1,434.27,757.74Z"/><path class="cls-6" d="M186.38,541s-24.51,13.95-52.76,19.4-23.15-6.47,0-17.53c0,0-37.11,6-37.11-4.94s28.6-21.1,28.6-21.1-93.62,3.06-92.26-14,98-33.82,98-33.82S88,465,91.4,454.15s76.94-11.92,76.94-11.92Z"/><path class="cls-7" d="M170,522.23s-34,5.11-34.72,0,11.91-9.53,11.23-14.3-24.85-3.4-26.21-11.91,30-13.13,29.62-15.76-9.87-7.62-9.87-11.25,21.1-7,21.1-7Z"/><path class="cls-8" d="M244.26,531.42l-55.49,20.43s-23.5-18.78-30.3-55.83,10.21-69.11,10.21-69.11l66,9.88Z"/><path class="cls-9" d="M310.58,480.26h74.35s21.7-62.55-58-81.44-155.23-3.58-151.66,3.06,106.4,17.6,113.88,35.75C296.34,455,310.58,480.26,310.58,480.26Z"/><path class="cls-10" d="M570.38,501.15c-22.09,10.25-47.1,20.28-73.3,29.56l-1,.35a1117.84,1117.84,0,0,1-113.55,33.47,261.13,261.13,0,0,1-41.77,6.6c-.39,0-.77.06-1.16.08C250.32,577,222.21,520.77,218.81,478c-5.46-68.81,36.95-103,94.61-115.47h0l1.48-.31c22.81-4.77,47.95-6.17,73.42-5,26,1.2,58.85,4.59,92.52,9.79.91.13,1.81.27,2.72.42,21.33,3.34,42.94,7.39,63.3,12.07-14.59,12-30.62,32.1-26.25,60.47C526.31,477,544.26,494.75,570.38,501.15Z"/><path class="cls-11" d="M497.08,530.71l-1,.35-.79-1.09c-.62-.84-1.16-1.72-1.74-2.58l-1.72-2.58c-.56-.88-1.08-1.78-1.61-2.66a149.88,149.88,0,0,1-11.09-22.21,187.31,187.31,0,0,1-12.31-48c-2.12-16.4-2.22-33.24.94-49.6l1.34-6.1c.48-2,1.12-4,1.68-6s1.29-4,2-5.92c.36-1,.69-2,1.08-2.94l1.23-2.88A105.05,105.05,0,0,1,480.85,367c.91.13,1.81.27,2.72.42a99.94,99.94,0,0,0-6.27,12l-1.23,2.8c-.39.94-.72,1.91-1.08,2.86-.69,1.92-1.46,3.82-2,5.79s-1.22,3.91-1.71,5.89l-1.36,6c-3.25,16.05-3.32,32.64-1.35,48.94a185.65,185.65,0,0,0,11.77,47.73,149.91,149.91,0,0,0,10.8,22.13c.52.89,1,1.78,1.57,2.65l1.69,2.59c.56.85,1.1,1.73,1.7,2.57Z"/><path class="cls-11" d="M340.76,571.13c-.39,0-.77.06-1.16.08l-.75-1.19c-.32-.53-.61-1.06-.91-1.59l-3.59-6.36c-4.54-8.63-8.61-17.48-12.3-26.49s-7-18.17-9.85-27.48-5.43-18.71-7.69-28.18L303,472.77l-.76-3.57c-.23-1.2-.42-2.4-.64-3.6l-1.25-7.2c-.39-2.41-.66-4.83-1-7.25-.74-4.82-1.06-9.69-1.5-14.55-.12-1.21-.17-2.43-.21-3.66l-.14-3.66-.14-3.66,0-3.66a141.14,141.14,0,0,1,3-29.18l.81-3.59c.28-1.2.66-2.37,1-3.56.61-2.38,1.48-4.69,2.27-7A73.61,73.61,0,0,1,311,365.29a9.63,9.63,0,0,1,2.45-2.78h0c.69-.47,1.23-.55,1.47-.32h0c.46.48,0,2-1.72,4.53a71,71,0,0,0-6.35,12.77c-.78,2.27-1.65,4.5-2.26,6.83-.33,1.15-.71,2.29-1,3.46l-.82,3.51A139.27,139.27,0,0,0,299.61,422l-.06,3.62.22,7.24c0,1.21.07,2.41.19,3.62.4,4.82.68,9.65,1.37,14.44.31,2.4.56,4.81.93,7.2l1.19,7.16c.2,1.2.38,2.4.6,3.59l.73,3.56,1.45,7.12a374.87,374.87,0,0,0,17,55.54c3.61,9,7.59,17.84,12,26.46l3.52,6.35.89,1.58,1,1.55Z"/><path class="cls-5" d="M655.4,432.79c-1.6-21.26-49.88-39.83-108.53-53.3-14.59,12-30.61,32.1-26.25,60.47,5.69,37,23.64,54.79,49.77,61.19C621.44,477.46,656.9,452.58,655.4,432.79Z"/><path class="cls-1" d="M515.84,281.36a6.59,6.59,0,0,1-.59,1.37c-31.89,55.47-80.32,78.41-82.37,79.36a6.6,6.6,0,0,1-5.56-12h0c.46-.22,46.77-22.28,76.49-74a6.59,6.59,0,0,1,12,5.2Z"/><g class="cls-12"><line class="cls-13" x1="445.06" y1="359.37" x2="431.86" y2="343.27"/><line class="cls-13" x1="464.38" y1="349.74" x2="446.21" y2="332.99"/><path class="cls-13" d="M462.3,319.79c1.58.48,19.69,14.63,19.69,14.63"/><line class="cls-13" x1="478.57" y1="303.2" x2="497.47" y2="317.58"/><line class="cls-13" x1="491.14" y1="284.61" x2="513.98" y2="300.2"/><path class="cls-14" d="M421.83,359.18s43.16-5.8,86.71-77.88,10.2,31.56,10.2,31.56L483.6,354.78l-52.17,12.51-10.38-8.35"/></g><path id="SVGID-3" data-name="SVGID" class="cls-2" d="M496.23,247.2l15.54,5.24s-10.84,13.56-2,18.25S523,257.49,523,257.49l13.56,5.06s-7.22,30.73-32.53,20.94C481.64,274.83,496.23,247.2,496.23,247.2Z"/><g class="cls-15"><polygon class="cls-16" points="488.27 247.2 548.09 271.58 549.91 239.96 478.17 230.4 488.27 247.2"/><path class="cls-16" d="M243.2,402.59l64.71-27.72s-7.59,30.73-9.39,31.46-69,12.67-69,12.67Z"/></g><ellipse class="cls-1" cx="382.53" cy="407.07" rx="64.03" ry="13.28" transform="translate(-54.55 59.23) rotate(-8.27)"/><ellipse class="cls-17" cx="417.36" cy="350.51" rx="17.36" ry="19.79" transform="translate(-46.06 63.65) rotate(-8.27)"/><polyline class="cls-18" points="503.39 157.61 514.06 192.56 475.33 205.12"/><path class="cls-19" d="M510.37,149.21a12.1,12.1,0,0,1,1.07,4.32,11.27,11.27,0,0,1-11.5,11.88,12.66,12.66,0,0,1-7.71-2.72,12.88,12.88,0,0,0,11.63,7.64,11.26,11.26,0,0,0,11.5-11.88A12.52,12.52,0,0,0,510.37,149.21Z"/><path class="cls-20" d="M511.44,153.53a12.1,12.1,0,0,0-1.07-4.32,12.65,12.65,0,0,0-7.7-2.72,11.26,11.26,0,0,0-11.51,11.88,12.1,12.1,0,0,0,1.07,4.32,12.66,12.66,0,0,0,7.71,2.72A11.27,11.27,0,0,0,511.44,153.53Z"/><path class="cls-21" d="M494.45,152.71a3.94,3.94,0,0,1,5.29-1.89c1.81,1,.88,2.66-.23,4.72s-2,3.73-3.79,2.72A4.08,4.08,0,0,1,494.45,152.71Z"/><path class="cls-2" d="M432.9,408.21a174.15,174.15,0,0,1-29.36,8.59c-6,1.28-12.42,2.44-19.11,3.41-18.29,2.65-35,3.44-46.94,2.55-16.75-39.92-26-82.57-26-82.57a639.43,639.43,0,0,1,85.68-15c10.9-1.09,22-1.8,32.81-1.89C430,323.26,434.54,366,432.9,408.21Z"/><path class="cls-18" d="M308.69,34.8l2,13.94a4.73,4.73,0,0,0,5.61,3.79c11.84-1.68,17.44-4.36,19.83,4.61,3.09,11.52-35.24,5.24-31.64,21,3.66,16.09,28.93-9.41,31.7,3.25,3,13.46-20.11,7.67-17.67,21.2s10.61,39.56,10.61,39.56"/><polyline class="cls-18" points="179.01 236.21 185.36 267.19 225.99 256.9"/><path class="cls-19" d="M187.41,224.83a12,12,0,0,1,1.06,4.32A11.27,11.27,0,0,1,177,241a12.71,12.71,0,0,1-7.7-2.72A12.9,12.9,0,0,0,180.9,246a11.27,11.27,0,0,0,11.5-11.88A12.54,12.54,0,0,0,187.41,224.83Z"/><path class="cls-20" d="M188.47,229.15a12,12,0,0,0-1.06-4.32,12.74,12.74,0,0,0-7.71-2.72A11.27,11.27,0,0,0,168.2,234a12.2,12.2,0,0,0,1.07,4.33A12.71,12.71,0,0,0,177,241,11.27,11.27,0,0,0,188.47,229.15Z"/><path class="cls-3" d="M256.4,249.72c2.63,18.08,6.39,32.89-10.61,35.36s-32.89-10.19-35.52-28.27,9-34.74,26-37.21S253.77,231.64,256.4,249.72Zm199.57-86c-17,2.47-28.37,21-25.42,41.32s19.13,34.85,36.13,32.38,28.37-21,25.41-41.32S473,161.29,456,163.76Z"/><g class="cls-22"><path class="cls-23" d="M201.22,268.72s22.54-39.57,46.41-37.5,22.08,63.9,22.08,63.9L206.9,307.8Z"/><path class="cls-23" d="M458.49,181.11s17.13-10.27,38.75,5.82-9.59,62.82-9.59,62.82l-38.59.68"/></g><path class="cls-2" d="M339.3,131.57c-79.31,19.93-120,33.88-115,85.76s15.1,114,74.18,105.76,187.61-36.39,191.3-73.82-7.87-107-32.66-124.22S383.92,120.36,339.3,131.57Z"/><g class="cls-24"><path class="cls-14" d="M427.64,106s27.86,15.77,41.19,77.36,24.54,95.75-174.93,147.38,232.88-16.26,232.88-16.26l41.5-165.81L472.6,95Z"/></g><path class="cls-19" d="M315.27,23.69A12.1,12.1,0,0,1,316.34,28a11.27,11.27,0,0,1-11.5,11.88,12.68,12.68,0,0,1-7.71-2.72,12.88,12.88,0,0,0,11.63,7.64,11.26,11.26,0,0,0,11.5-11.88A12.52,12.52,0,0,0,315.27,23.69Z"/><path class="cls-20" d="M316.34,28a12.1,12.1,0,0,0-1.07-4.32,12.65,12.65,0,0,0-7.7-2.72,11.25,11.25,0,0,0-11.5,11.88,11.88,11.88,0,0,0,1.06,4.32,12.68,12.68,0,0,0,7.71,2.72A11.27,11.27,0,0,0,316.34,28Z"/><path class="cls-21" d="M299.36,27.18a3.94,3.94,0,0,1,5.28-1.88c1.81,1,.88,2.66-.23,4.72s-2,3.73-3.79,2.72A4.09,4.09,0,0,1,299.36,27.18Z"/><line class="cls-25" x1="281.41" y1="28.61" x2="274.53" y2="27.73"/><line class="cls-25" x1="297.77" y1="9.19" x2="294.52" y2="0.35"/><line class="cls-25" x1="325.87" y1="10.23" x2="329.43" y2="4.59"/><path class="cls-26" d="M322,244.06c1,7-4.86-3.93-10-3.18s-7.71,12.9-8.72,5.91,2.36-13.26,7.55-14S321,237.07,322,244.06Z"/><path class="cls-26" d="M417.85,221c1,7-4.86-3.93-10-3.18s-7.72,12.9-8.73,5.91,2.36-13.26,7.55-14S416.84,214,417.85,221Z"/><ellipse class="cls-17" cx="318.49" cy="364.88" rx="17.36" ry="19.79" transform="translate(-49.15 49.58) rotate(-8.27)"/><ellipse class="cls-3" cx="311.26" cy="365.93" rx="17.36" ry="19.79" transform="translate(-49.38 48.56) rotate(-8.27)"/><path class="cls-21" d="M171,228.38a3.94,3.94,0,0,1,5.29-1.89c1.81,1,.88,2.67-.23,4.72s-2,3.73-3.79,2.72A4.08,4.08,0,0,1,171,228.38Z"/><path class="cls-27" d="M371.55,266.8c-7.41-1.59-12.71,2.55-15.78,6.15,5.2,5.09,11.36,8.64,17.65,6.74a16.26,16.26,0,0,0,9.11-7.55A26.25,26.25,0,0,0,371.55,266.8Z"/><path class="cls-28" d="M341.64,252.87s5.85,12,14.13,20.08c3.07-3.6,8.37-7.74,15.78-6.15a26.25,26.25,0,0,1,11,5.34c6.58-10.79,5.77-28.39,5.77-28.39C365,264.1,341.64,252.87,341.64,252.87Z"/><path class="cls-14" d="M432.9,408.21a174.15,174.15,0,0,1-29.36,8.59c7.43-33.07-1.25-72.94-6.34-91.65,10.9-1.09,22-1.8,32.81-1.89C430,323.26,434.54,366,432.9,408.21Z"/><path class="cls-1" d="M207.61,312.25a6.6,6.6,0,0,1,9.33-.23c43.2,41.09,93.87,49.06,94.37,49.14h0a6.6,6.6,0,0,1-1.92,13c-2.23-.32-55.19-8.54-101.55-52.63a6.83,6.83,0,0,1-1-1.14A6.61,6.61,0,0,1,207.61,312.25Z"/><g class="cls-29"><line class="cls-13" x1="296.94" y1="375.07" x2="305.01" y2="355.89"/><line class="cls-13" x1="275.68" y1="371.34" x2="288.33" y2="350.11"/><path class="cls-13" d="M269.15,342c-1.38.91-14.71,19.62-14.71,19.62"/><line class="cls-13" x1="248.83" y1="330.76" x2="234.81" y2="349.93"/><line class="cls-13" x1="231.49" y1="316.52" x2="214.03" y2="337.96"/><path class="cls-14" d="M319.15,368.29s-43,6.71-105.28-50-.8,33.17-.8,33.17l45.62,30.18,53.56-2.85,7.59-11"/></g><path id="SVGID-4" data-name="SVGID" class="cls-2" d="M216,282.1l-13.42,9.45s14.26,9.91,7.1,16.94-16.4-8.9-16.4-8.9l-11.56,8.7s15.67,27.41,37.14,10.81C237.81,304.44,216,282.1,216,282.1Z"/><g class="cls-30"><polygon class="cls-16" points="223.59 279.84 173.19 320.24 162.44 290.44 228.5 260.86 223.59 279.84"/><path class="cls-16" d="M502.75,359.06l-69.92-8.15s16,27.3,18,27.48,69.8-7.5,69.8-7.5Z"/></g><circle class="cls-31" cx="41.11" cy="303.59" r="41.11"/><ellipse class="cls-32" cx="44.35" cy="328.98" rx="8.28" ry="7.12"/><ellipse class="cls-32" cx="24.68" cy="290.24" rx="9.35" ry="8.03" transform="matrix(0.82, -0.57, 0.57, 0.82, -160.24, 65.18)"/><ellipse class="cls-32" cx="61.75" cy="295.52" rx="10.51" ry="12.23" transform="translate(-190.88 130.22) rotate(-45)"/><line class="cls-33" x1="618.77" y1="282.01" x2="618.77" y2="298.48"/><line class="cls-33" x1="627" y1="290.24" x2="610.53" y2="290.24"/><line class="cls-33" x1="69.98" y1="606.79" x2="69.98" y2="623.26"/><line class="cls-33" x1="78.22" y1="615.02" x2="61.75" y2="615.02"/><line class="cls-33" x1="490.41" y1="80.26" x2="490.41" y2="96.72"/><line class="cls-33" x1="498.65" y1="88.49" x2="482.18" y2="88.49"/><circle class="cls-34" cx="308.7" cy="652.99" r="6.19"/><circle class="cls-34" cx="136.34" cy="159.77" r="6.19"/><path class="cls-10" d="M465.29,375.53a2.35,2.35,0,1,1-2.35-2.35A2.35,2.35,0,0,1,465.29,375.53Zm-154,19.93a2.35,2.35,0,1,0,2.35,2.35A2.35,2.35,0,0,0,311.26,395.46Zm-21.27,0a2.35,2.35,0,1,0,2.35,2.35A2.35,2.35,0,0,0,290,395.46Zm198.28-17.58a2.35,2.35,0,1,0,2.35,2.35A2.35,2.35,0,0,0,488.27,377.88Zm8.58,121.47a2.35,2.35,0,1,0,2.35,2.35A2.35,2.35,0,0,0,496.85,499.35Zm-22.32,9.55a2.35,2.35,0,1,0,2.35,2.35A2.36,2.36,0,0,0,474.53,508.9Z"/><path class="cls-5" d="M290,497.64h74.35s21.7,62.55-58,81.44S151.15,582.66,154.72,576s92.94-15.66,113.88-35.75C282.14,527.28,290,497.64,290,497.64Z"/></g></g></g></svg>